<svg version="1.2" xmlns="http://www.w3.org/2000/svg" viewBox="0 0 1080 762" width="1080" height="762">
	<title>New Project</title>
	<style>
		.s0 { fill: #000000 } 
	</style>
	<g id="Folder 1">
		<path id="&lt;  &gt;" class="s0" aria-label="&lt;  &gt;"  d="m326.2 632.9v126l-326.9-318.1v-79.3l326.9-356.6v126.8l-255.1 263.9zm426.3 126v-126l255.8-236.5-255.8-264.7v-126.8l326.9 356.7v79.3z"/>
		<path id="B " class="s0" aria-label="B "  d="m372.3 584.6v-356.3h105.8q73.6 0 106.3 21.4 32.9 21.5 32.9 67.8 0 31.2-16.1 51.9-16.1 20.7-46.3 26.1v2.4q37.5 7.1 55.1 28.1 17.8 20.7 17.8 56.3 0 48-33.7 75.3-33.4 27-93.1 27zm58.3-307.6v98.5h56q36.6 0 53.4-11.5 16.8-11.7 16.8-39.5 0-25.1-18.3-36.3-18-11.2-57.5-11.2zm59 145.8h-59v112.8h61.9q36.6 0 55.1-13.8 18.8-14.2 18.8-44.4 0-27.8-19-41.2-19-13.4-57.8-13.4z"/>
		<path id="³" class="s0" aria-label="³"  d="m693.5 156.4q21 0 34.8 10.6 13.7 10.4 13.7 28.2 0 11.8-6.9 20.1-6.7 8.4-21.6 13.3v2q16.9 3.7 25 13.4 8.2 9.8 8.2 21.7 0 20.3-14.8 32.1-14.7 11.5-45.9 11.5-12.8 0-23.9-2.8-11.1-2.9-22-8.7v-32.1q11.1 6.7 22.2 10.9 11.1 4.2 23.3 4.2 12.4 0 18.1-4.5 5.9-4.6 5.9-13.3 0-6.9-5.9-12.4-5.7-5.5-21.9-5.5h-18.8v-26.7h15.4q17.5 0 22.5-5.7 5-5.7 5-12.6 0-6.4-4.2-10.6-4.2-4.2-12.7-4.2-7.9 0-15 3.2-7 3.2-16.6 9.9l-16.9-23.7q10.4-7.9 23-13.1 12.7-5.2 30-5.2z"/>
	</g>
</svg>